<svg height="512pt" viewBox="0 0 512 512" width="512pt" xmlns="http://www.w3.org/2000/svg"><path d="m0 256c0-141.386719 114.613281-256 256-256s256 114.613281 256 256-114.613281 256-256 256-256-114.613281-256-256zm0 0" fill="#54469b"/><path d="m192.550781 359.511719c-29.183593-29.183594-34.699219-74.507813-13.367187-109.835938l73.390625-121.539062c1.558593-2.574219 5.292969-2.574219 6.851562 0l73.390625 121.539062c21.332032 35.328125 15.816406 80.652344-13.367187 109.835938-35.042969 35.042969-91.855469 35.042969-126.898438 0zm0 0" fill="#0ed1b2"/><path d="m332.816406 249.675781c.179688.296875.355469.59375.53125.894531 33.101563 56.269532-27.539062 120.292969-86.113281 91.460938-9.75-4.800781-18.890625-11.253906-27.003906-19.367188-.644531-.644531-1.277344-1.296874-1.902344-1.953124-29.800781-31.429688-34.195313-79.230469-11.808594-116.304688l46.054688-76.265625c1.558593-2.578125 5.292969-2.578125 6.851562 0zm0 0" fill="#5de0c3"/><path d="m472 256h-50c0-91.679688-74.320312-166-166-166v-50c119.292969 0 216 96.707031 216 216zm0 0" fill="#fc9302"/><path d="m408.734375 103.265625-35.355469 35.355469c-30.039062-30.042969-71.539062-48.621094-117.378906-48.621094v-50c59.648438 0 113.648438 24.175781 152.734375 63.265625zm0 0" fill="#fdbf43"/><path d="m256 472v-50c91.679688 0 166-74.320312 166-166h50c0 119.292969-96.707031 216-216 216zm0 0" fill="#e30048"/><path d="m408.734375 408.734375-35.355469-35.355469c30.042969-30.039062 48.621094-71.539062 48.621094-117.378906h50c0 59.648438-24.175781 113.648438-63.265625 152.734375zm0 0" fill="#fd0464"/><path d="m40 256h50c0 91.679688 74.320312 166 166 166v50c-119.292969 0-216-96.707031-216-216zm0 0" fill="#0ab59e"/><path d="m103.265625 408.734375 35.355469-35.355469c30.039062 30.042969 71.539062 48.621094 117.378906 48.621094v50c-59.648438 0-113.648438-24.175781-152.734375-63.265625zm0 0" fill="#5de0c3"/><path d="m256 40v50c-91.679688 0-166 74.320312-166 166h-50c0-119.292969 96.707031-216 216-216zm0 0" fill="#3691bb"/><path d="m103.265625 103.265625 35.355469 35.355469c-30.042969 30.039062-48.621094 71.539062-48.621094 117.378906h-50c0-59.648438 24.175781-113.648438 63.265625-152.734375zm0 0" fill="#6caac9"/><path d="m113.828125 451.203125-13.945313 13.945313c-3.90625 3.90625-10.238281 3.90625-14.140624 0l-38.890626-38.890626c-3.90625-3.902343-3.90625-10.234374 0-14.140624l13.945313-13.945313c5.601563-5.605469 12.742187-9.417969 20.519531-10.953125l39.539063-7.824219c6.984375-1.382812 13.132812 4.765625 11.75 11.75l-7.824219 39.539063c-1.535156 7.777344-5.347656 14.917968-10.953125 20.519531zm0 0" fill="#fdbf43"/><path d="m62.054688 427.320312 13.941406-13.945312c5.605468-5.605469 12.746094-9.417969 20.523437-10.953125l35.234375-6.972656-6.972656 35.234375c-1.535156 7.777344-5.347656 14.917968-10.953125 20.519531l-13.945313 13.945313c-3.90625 3.90625-10.238281 3.90625-14.140624 0l-23.6875-23.6875c-3.90625-3.90625-3.90625-10.234376 0-14.140626zm0 0" fill="#fdcb6b"/></svg>