<svg id="Layer_1" height="512" viewBox="0 0 512 512" width="512" xmlns="http://www.w3.org/2000/svg" xmlns:xlink="http://www.w3.org/1999/xlink" data-name="Layer 1"><linearGradient id="linear-gradient" gradientUnits="userSpaceOnUse" x1="589.542" x2="86.882" y1="82.455" y2="585.115"><stop offset="0" stop-color="#f7941e"/><stop offset="1" stop-color="#ee2a7b"/></linearGradient><linearGradient id="linear-gradient-2" x1="473.525" x2="-29.135" xlink:href="#linear-gradient" y1="-33.525" y2="469.135"/><linearGradient id="linear-gradient-3" x1="641.525" x2="138.865" xlink:href="#linear-gradient" y1="134.475" y2="637.135"/><linearGradient id="linear-gradient-4" x1="501.657" x2="-1.003" xlink:href="#linear-gradient" y1="-5.657" y2="497.003"/><linearGradient id="linear-gradient-5" x1="319.525" x2="-183.135" xlink:href="#linear-gradient" y1="-187.525" y2="315.135"/><linearGradient id="linear-gradient-6" x1="365.525" x2="-137.135" xlink:href="#linear-gradient" y1="-141.525" y2="361.135"/><linearGradient id="linear-gradient-7" x1="453.525" x2="-49.135" xlink:href="#linear-gradient" y1="-53.525" y2="449.135"/><linearGradient id="linear-gradient-8" x1="489.525" x2="-13.135" xlink:href="#linear-gradient" y1="-17.525" y2="485.135"/><path d="m299.814 408.968-25.4-13.78-11.238-22.733a8 8 0 0 0 -6.849-4.447 7.915 7.915 0 0 0 -7.185 3.88l-13.962 23.29-23.29 13.962a8 8 0 0 0 .567 14.033l22.733 11.238 13.78 25.4a8 8 0 0 0 7.03 4.189c.1 0 .2 0 .307-.006a8 8 0 0 0 7-4.727l11.116-24.849 24.845-11.118a8 8 0 0 0 .547-14.335zm-34.714 12.094a8.007 8.007 0 0 0 -4.035 4.035l-5.751 12.854-7.27-13.4a8.006 8.006 0 0 0 -3.486-3.357l-11.869-5.867 12.437-7.455a7.993 7.993 0 0 0 2.748-2.748l7.455-12.437 5.867 11.869a8.006 8.006 0 0 0 3.357 3.486l13.4 7.27z" fill="url(#linear-gradient)"/><path d="m208 216h16v16h-16z" fill="url(#linear-gradient-2)"/><path d="m304 456h16v16h-16z" fill="url(#linear-gradient-3)"/><path d="m504 0h-496a8 8 0 0 0 -8 8v256a8 8 0 0 0 8 8h40v54a2 2 0 0 1 -2 2h-4a2 2 0 0 1 -2-2v-28a18.021 18.021 0 0 0 -18-18h-4a18.021 18.021 0 0 0 -18 18v66.848a17.907 17.907 0 0 0 3.254 10.322l45.381 64.83h-8.635a8 8 0 0 0 -8 8v56a8 8 0 0 0 8 8h120a8 8 0 0 0 8-8v-56a8 8 0 0 0 -6.7-7.886l78.752-91.877a18.085 18.085 0 0 0 -.938-24.442l-9.709-9.709a18 18 0 0 0 -26.556 1.205l-15.308 18.368a2 2 0 0 1 -3.541-1.279v-60.38h144v60.38a2 2 0 0 1 -3.537 1.28l-15.307-18.369a18 18 0 0 0 -26.557-1.205l-9.709 9.709a18.085 18.085 0 0 0 -.938 24.442l78.748 91.877a8 8 0 0 0 -6.7 7.886v56a8 8 0 0 0 8 8h120a8 8 0 0 0 8-8v-56a8 8 0 0 0 -8-8h-8.635l45.381-64.829a17.912 17.912 0 0 0 3.254-10.323v-66.848a18.021 18.021 0 0 0 -18-18h-4a18.021 18.021 0 0 0 -18 18v28a2 2 0 0 1 -2 2h-4a2 2 0 0 1 -2-2v-54h40a8 8 0 0 0 8-8v-256a8 8 0 0 0 -8-8zm-8 16v48h-480v-48zm-80 256h8v38a2 2 0 0 1 -2 2h-4a2 2 0 0 1 -2-2zm8-16h-8v-14a18.021 18.021 0 0 0 -18-18h-4a18.021 18.021 0 0 0 -18 18v14h-8.118a18.026 18.026 0 0 0 -15.882-15.882v-72.118h16a8 8 0 0 0 8-8v-80h24v80a8 8 0 0 0 8 8h16zm-56 16h8v38a2 2 0 0 1 -2 2h-4a2 2 0 0 1 -2-2zm-39.882-16h-64.118v-88h16a8 8 0 0 0 8-8v-80h24v80a8 8 0 0 0 8 8h16v75.044a18.013 18.013 0 0 0 -7.882 12.956zm-192.118 16h8v38a2 2 0 0 1 -2 2h-4a2 2 0 0 1 -2-2zm8.118-16h-8.118v-14a18.021 18.021 0 0 0 -18-18h-4a18.021 18.021 0 0 0 -18 18v14h-8v-88h16a8 8 0 0 0 8-8v-80h24v80a8 8 0 0 0 8 8h16v72.118a18.026 18.026 0 0 0 -15.882 15.882zm-80.118-176h32v72h-32zm24 192h8v38a2 2 0 0 1 -2 2h-4a2 2 0 0 1 -2-2zm64-120v-72h32v72zm24 91.044v-75.044h16a8 8 0 0 0 8-8v-80h24v80a8 8 0 0 0 8 8h16v88h-64.118a18.013 18.013 0 0 0 -7.882-12.956zm64-91.044v-72h32v72zm88 0v-72h32v72zm88 0v-72h32v72zm-400-72h32v80a8 8 0 0 0 8 8h16v72.118a18.092 18.092 0 0 0 -2-.118h-4a18.022 18.022 0 0 0 -17.882 16h-32.118zm136 416h-104v-40h104zm47.828-152.1 15.309-18.369a1.949 1.949 0 0 1 1.444-.717 1.916 1.916 0 0 1 1.5.584l9.709 9.709a2.009 2.009 0 0 1 .1 2.716l-86.972 101.477a2 2 0 0 1 -1.518.7h-70.193a2 2 0 0 1 -1.639-.854l-51.207-73.153a1.986 1.986 0 0 1 -.361-1.145v-66.848a2 2 0 0 1 2-2h4a2 2 0 0 1 2 2v28a18.021 18.021 0 0 0 18 18h4a18.021 18.021 0 0 0 18-18v-68a2 2 0 0 1 2-2h4a2 2 0 0 1 2 2v52a18.021 18.021 0 0 0 18 18h4a18.021 18.021 0 0 0 18-18v-68a2 2 0 0 1 2-2h4a2 2 0 0 1 2 2v68a18.021 18.021 0 0 0 18 18h4a18.021 18.021 0 0 0 18-18v-52a2 2 0 0 1 2-2h4a2 2 0 0 1 2 2v74.38a18 18 0 0 0 31.828 11.52zm264.172 152.1h-104v-40h104zm2-152h4a18.021 18.021 0 0 0 18-18v-28a2 2 0 0 1 2-2h4a2 2 0 0 1 2 2v66.848a1.991 1.991 0 0 1 -.361 1.146l-51.208 73.153a2 2 0 0 1 -1.638.853h-70.193a2 2 0 0 1 -1.519-.7l-86.981-101.475a2.009 2.009 0 0 1 .1-2.716l9.709-9.709a1.948 1.948 0 0 1 1.408-.587q.05 0 .1 0a1.953 1.953 0 0 1 1.445.717l15.308 18.37a18 18 0 0 0 31.83-11.52v-74.38a2 2 0 0 1 2-2h4a2 2 0 0 1 2 2v52a18.021 18.021 0 0 0 18 18h4a18.021 18.021 0 0 0 18-18v-68a2 2 0 0 1 2-2h4a2 2 0 0 1 2 2v68a18.021 18.021 0 0 0 18 18h4a18.021 18.021 0 0 0 18-18v-52a2 2 0 0 1 2-2h4a2 2 0 0 1 2 2v68a18.021 18.021 0 0 0 18 18zm30-88h-32.118a18.022 18.022 0 0 0 -17.882-16h-4a18.092 18.092 0 0 0 -2 .118v-72.118h16a8 8 0 0 0 8-8v-80h32z" fill="url(#linear-gradient-4)"/><path d="m56 32h72v16h-72z" fill="url(#linear-gradient-5)"/><path d="m168 32h32v16h-32z" fill="url(#linear-gradient-6)"/><path d="m344 32h32v16h-32z" fill="url(#linear-gradient-7)"/><path d="m416 32h32v16h-32z" fill="url(#linear-gradient-8)"/></svg>